<svg width="28" height="160" viewBox="0 0 28 160" fill="none" xmlns="http://www.w3.org/2000/svg">
<path d="M0 16C0 7.16345 7.16344 0 16 0H28V160H16C7.16344 160 0 152.837 0 144V16Z" fill="url(#paint0_linear_19_638)" fill-opacity="0.1"/>
<path d="M17 139.002L12.8711 139.002L12.8711 134.764L11.5791 134.764L11.5791 139.002L8.45508 139.002L8.45508 134.374L7.13574 134.374L7.13574 140.533L17 140.533L17 139.002ZM17 132.556L17 131.086L12.5635 131.086C11.5176 131.086 10.7998 130.3 10.7998 129.186C10.7998 128.926 10.8477 128.488 10.8818 128.365L9.50098 128.365C9.4668 128.522 9.44629 128.803 9.44629 129.021C9.44629 129.992 9.97266 130.819 10.7041 131.031L10.7041 131.141L9.57617 131.141L9.57617 132.556L17 132.556ZM15.0107 122.261C15.6123 122.534 15.9404 123.143 15.9404 124.031C15.9404 125.207 15.0928 125.966 13.7461 126.014L13.6777 126.014L13.6777 120.757L13.1719 120.757C10.8477 120.757 9.43262 122.008 9.43262 124.079C9.43262 126.178 10.9434 127.511 13.3018 127.511C15.6738 127.511 17.1436 126.205 17.1436 124.072C17.1436 122.37 16.3232 121.167 15.0107 120.846L15.0107 122.261ZM10.6289 124.086C10.6289 122.999 11.415 122.288 12.6182 122.254L12.6182 126.014C11.4219 125.932 10.6289 125.173 10.6289 124.086ZM15.0107 114.112C15.6123 114.386 15.9404 114.994 15.9404 115.883C15.9404 117.059 15.0928 117.817 13.7461 117.865L13.6777 117.865L13.6777 112.608L13.1719 112.608C10.8477 112.608 9.43262 113.859 9.43262 115.931C9.43262 118.029 10.9434 119.362 13.3018 119.362C15.6738 119.362 17.1436 118.057 17.1436 115.924C17.1436 114.222 16.3232 113.019 15.0107 112.697L15.0107 114.112ZM10.6289 115.937C10.6289 114.851 11.415 114.14 12.6182 114.105L12.6182 117.865C11.4219 117.783 10.6289 117.024 10.6289 115.937ZM9.57617 100.741L9.57617 102.211L13.9307 102.211C15.127 102.211 15.8516 102.86 15.8516 104.05C15.8516 105.13 15.2637 105.615 14.0332 105.615L9.57617 105.615L9.57617 107.085L14.3955 107.085C16.1387 107.085 17.1436 106.169 17.1436 104.521C17.1436 103.394 16.665 102.635 15.8242 102.272L15.8242 102.156L17 102.156L17 100.741L9.57617 100.741ZM9.44629 94.7461C9.44629 95.7578 9.95898 96.6328 10.8066 97.084L10.8066 97.1934L9.57617 97.1934L9.57617 98.6084L19.4746 98.6084L19.4746 97.1387L15.8789 97.1387L15.8789 97.0225C16.665 96.6328 17.123 95.792 17.123 94.7324C17.123 92.8525 15.6328 91.6562 13.2881 91.6562C10.9297 91.6562 9.44629 92.8525 9.44629 94.7461ZM15.8652 95.1631C15.8652 96.3936 14.874 97.166 13.2881 97.166C11.6953 97.166 10.7041 96.3936 10.7041 95.1562C10.7041 93.9121 11.6748 93.167 13.2881 93.167C14.9014 93.167 15.8652 93.9121 15.8652 95.1631ZM19.8369 86.748C19.8369 84.6426 18.7637 83.3096 17.0752 83.3096L9.57617 83.3096L9.57617 84.7178L10.7588 84.7178L10.7588 84.834C9.95215 85.251 9.44629 86.1465 9.44629 87.1719C9.44629 89.0723 10.9434 90.2617 13.1924 90.2617C15.4209 90.2617 16.8906 89.0859 16.8906 87.1855C16.8906 86.1602 16.4463 85.3398 15.6396 84.8887L15.6396 84.7793L17.0684 84.7793C18.0732 84.7793 18.6748 85.5039 18.6748 86.7275C18.6748 87.7187 18.3193 88.3408 17.7588 88.4639L17.7588 89.9678C19.0098 89.8105 19.8369 88.6074 19.8369 86.748ZM15.6738 86.7686C15.6738 88.0332 14.71 88.7441 13.1924 88.7441C11.6748 88.7441 10.7041 88.0332 10.7041 86.7686C10.7041 85.5176 11.6748 84.752 13.1924 84.752C14.71 84.752 15.6738 85.5107 15.6738 86.7686ZM17 81.1768L17 79.707L12.5635 79.707C11.5176 79.707 10.7998 78.9209 10.7998 77.8066C10.7998 77.5469 10.8477 77.1094 10.8818 76.9863L9.50097 76.9863C9.46679 77.1436 9.44629 77.4238 9.44629 77.6426C9.44629 78.6133 9.97265 79.4404 10.7041 79.6523L10.7041 79.7617L9.57617 79.7617L9.57617 81.1768L17 81.1768ZM17.123 73.5684C17.123 72.5908 16.6992 71.7773 15.9473 71.333L15.9473 71.2168L17 71.2168L17 69.8018L11.9209 69.8018C10.3623 69.8018 9.43261 70.8545 9.43261 72.7207C9.43261 74.4092 10.2461 75.6123 11.4971 75.7627L11.4971 74.3408C10.957 74.1768 10.6494 73.6094 10.6494 72.7891C10.6494 71.7842 11.1074 71.2646 11.9209 71.2646L12.5703 71.2646L12.6934 73.2812C12.8027 75.0518 13.5752 76.0498 14.9082 76.0498C16.2617 76.0498 17.123 75.0039 17.123 73.5684ZM15.9404 73.1924C15.9404 73.9922 15.5371 74.5732 14.8467 74.5732C14.1699 74.5732 13.8076 74.1084 13.7393 73.083L13.6162 71.2646L14.2588 71.2646C15.2158 71.2646 15.9404 72.085 15.9404 73.1924ZM17.123 64.9893C17.123 63.9639 16.6377 63.0957 15.8242 62.6514L15.8242 62.5352L17 62.5352L17 61.127L6.66406 61.127L6.66406 62.5967L10.7519 62.5967L10.7519 62.7061C9.93847 63.1094 9.44629 63.9707 9.44629 64.9893C9.44629 66.8691 10.9434 68.0791 13.2812 68.0791C15.6328 68.0791 17.123 66.8828 17.123 64.9893ZM10.7041 64.5723C10.7041 63.3418 11.7021 62.5693 13.2881 62.5693C14.8877 62.5693 15.8652 63.335 15.8652 64.5723C15.8652 65.8164 14.9014 66.5615 13.2881 66.5615C11.6816 66.5615 10.7041 65.8096 10.7041 64.5723ZM15.0107 54.0381C15.6123 54.3115 15.9404 54.9199 15.9404 55.8086C15.9404 56.9844 15.0928 57.7432 13.7461 57.791L13.6777 57.791L13.6777 52.5342L13.1719 52.5342C10.8477 52.5342 9.43261 53.7852 9.43261 55.8564C9.43261 57.9551 10.9434 59.2881 13.3018 59.2881C15.6738 59.2881 17.1436 57.9824 17.1436 55.8496C17.1436 54.1475 16.3232 52.9443 15.0107 52.623L15.0107 54.0381ZM10.6289 55.8633C10.6289 54.7764 11.415 54.0654 12.6182 54.0312L12.6182 57.791C11.4219 57.709 10.6289 56.9502 10.6289 55.8633ZM9.44628 43.0801C9.44628 44.0918 9.95898 44.9668 10.8066 45.418L10.8066 45.5273L9.57617 45.5273L9.57617 46.9424L19.4746 46.9424L19.4746 45.4727L15.8789 45.4727L15.8789 45.3564C16.665 44.9668 17.123 44.126 17.123 43.0664C17.123 41.1865 15.6328 39.9902 13.2881 39.9902C10.9297 39.9902 9.44628 41.1865 9.44628 43.0801ZM15.8652 43.4971C15.8652 44.7275 14.874 45.5 13.2881 45.5C11.6953 45.5 10.7041 44.7275 10.7041 43.4902C10.7041 42.2461 11.6748 41.501 13.2881 41.501C14.9014 41.501 15.8652 42.2461 15.8652 43.4971ZM17 38.1514L17 36.6816L6.66406 36.6816L6.66406 38.1514L17 38.1514ZM17.123 32.416C17.123 31.4385 16.6992 30.625 15.9473 30.1807L15.9473 30.0645L17 30.0645L17 28.6494L11.9209 28.6494C10.3623 28.6494 9.43261 29.7021 9.43261 31.5684C9.43261 33.2568 10.2461 34.46 11.4971 34.6104L11.4971 33.1885C10.957 33.0244 10.6494 32.457 10.6494 31.6367C10.6494 30.6318 11.1074 30.1123 11.9209 30.1123L12.5703 30.1123L12.6934 32.1289C12.8027 33.8994 13.5752 34.8975 14.9082 34.8975C16.2617 34.8975 17.123 33.8516 17.123 32.416ZM15.9404 32.04C15.9404 32.8398 15.5371 33.4209 14.8467 33.4209C14.1699 33.4209 13.8076 32.9561 13.7393 31.9307L13.6162 30.1123L14.2588 30.1123C15.2158 30.1123 15.9404 30.9326 15.9404 32.04ZM17 26.5576L17 25.0879L12.6455 25.0879C11.4492 25.0879 10.7109 24.3975 10.7109 23.3105C10.7109 22.2236 11.3125 21.7041 12.543 21.7041L17 21.7041L17 20.2344L12.1943 20.2344C10.4238 20.2344 9.43261 21.1504 9.43261 22.8115C9.43261 23.9326 9.93163 24.6709 10.7519 25.0332L10.7519 25.1426L9.57617 25.1426L9.57617 26.5576L17 26.5576Z" fill="#0067FF"/>
<defs>
<linearGradient id="paint0_linear_19_638" x1="7" y1="-2" x2="21.5" y2="156.5" gradientUnits="userSpaceOnUse">
<stop offset="0.00655983" stop-color="#0067FF"/>
<stop offset="0.598958" stop-color="#D08484" stop-opacity="0.6"/>
<stop offset="0.994958" stop-color="#0067FF" stop-opacity="0.45"/>
</linearGradient>
</defs>
</svg>
